<svg width="638" height="425" viewBox="0 0 638 425" fill="none" xmlns="http://www.w3.org/2000/svg">
<path d="M58.697 302.108L50.613 306.758C53.6754 301.674 56.0456 293.926 57.1587 287.823C60.2941 293.176 65.1761 299.641 69.7954 303.368L60.7338 301.792C68.3438 328.171 90.4586 345.78 114.025 343.901L114.188 345.942C89.5721 347.906 66.5085 329.56 58.697 302.108Z" fill="#40494F"/>
<path d="M31.2559 248.438L21.0137 252.52V254.746L31.2559 258.828V256.268L24.4648 253.596L31.2559 250.924V248.438ZM40.8301 249.365C39.3828 249.365 38.1211 249.959 37.3047 250.887V245.84H34.3359V260.684H37.3047V254.338C37.3047 252.854 38.4551 251.815 39.8652 251.815C41.0898 251.815 41.8691 252.705 41.8691 254.301V260.684H44.8379V253.633C44.8379 251.072 43.2051 249.365 40.8301 249.365ZM54.7461 252V249.551H51.5547V246.582H48.8828L48.5859 249.551H46.3594V252H48.5859V257.567C48.5859 259.793 49.959 260.906 52.2969 260.906C53.1133 260.906 53.9297 260.832 54.7461 260.61V257.975C54.1523 258.123 53.6699 258.16 52.9648 258.16C52.0742 258.16 51.5547 257.826 51.5547 256.861V252H54.7461ZM70.666 249.365C68.959 249.365 67.5488 250.145 66.7695 251.406C66.1758 250.145 64.9512 249.365 63.3926 249.365C61.8711 249.365 60.6094 249.996 59.793 251.035L59.6816 249.551H57.0098V260.684H59.9785V254.338C59.9785 252.854 60.9805 251.815 62.3906 251.815C63.6523 251.815 64.2832 252.705 64.2832 254.301V260.684H67.252V254.338C67.252 252.854 68.291 251.815 69.7012 251.815C70.9258 251.815 71.5938 252.705 71.5938 254.301V260.684H74.5625V253.633C74.5625 251.072 73.0039 249.365 70.666 249.365ZM77.4199 260.684H80.3887V245.84H77.4199V260.684ZM83.4688 248.438V250.998L90.2598 253.67L83.4688 256.342V258.828L93.7109 254.746V252.52L83.4688 248.438Z" fill="#40494F"/>
<path d="M38.3817 121.747C27.088 104.805 31.6667 81.9158 48.6085 70.6221C65.5503 59.3284 88.4398 63.9071 99.7335 80.8489L144.43 147.899L83.0785 188.797L38.3817 121.747Z" fill="url(#paint0_linear_32_3016)"/>
<rect x="59.791" y="98.168" width="10.7529" height="18.4904" rx="5.37644" transform="rotate(-34.8804 59.791 98.168)" fill="white"/>
<ellipse cx="70.6673" cy="107.057" rx="3.84031" ry="3.55584" transform="rotate(-34.8804 70.6673 107.057)" fill="black"/>
<rect x="48.4497" y="106.074" width="10.7529" height="18.4904" rx="5.37644" transform="rotate(-34.8804 48.4497 106.074)" fill="white"/>
<ellipse cx="59.3259" cy="114.962" rx="3.84031" ry="3.55584" transform="rotate(-34.8804 59.3259 114.962)" fill="black"/>
<line x1="69.0728" y1="125.099" x2="76.2599" y2="120.033" stroke="black" stroke-width="2" stroke-linecap="round"/>
<path d="M530.449 83.0565C534.966 63.2027 554.722 50.7694 574.575 55.286C594.429 59.8026 606.863 79.5587 602.346 99.4125L590.079 153.335L518.182 136.979L530.449 83.0565Z" fill="url(#paint1_linear_32_3016)"/>
<rect x="562.292" y="82.3602" width="10.7529" height="18.4904" rx="5.37644" transform="rotate(11.6239 562.292 82.3602)" fill="white"/>
<ellipse cx="563.333" cy="96.3694" rx="3.84031" ry="3.55584" transform="rotate(11.6239 563.333 96.3694)" fill="black"/>
<rect x="548.751" y="79.5747" width="10.7529" height="18.4904" rx="5.37644" transform="rotate(11.6239 548.751 79.5747)" fill="white"/>
<ellipse cx="549.79" cy="93.5839" rx="3.84031" ry="3.55584" transform="rotate(11.6239 549.79 93.5839)" fill="black"/>
<line x1="549.145" y1="107.63" x2="557.766" y2="109.357" stroke="black" stroke-width="2" stroke-linecap="round"/>
<path d="M391.167 57.6004H81.0869V220.415H391.167V57.6004Z" fill="#F2F2F2"/>
<path d="M390.98 57.3485H80.9004V76.2232H390.98V57.3485Z" fill="#E6E6E6"/>
<path d="M385.366 83.8762H88.1016V211.832H385.366V83.8762Z" fill="white"/>
<path d="M110.281 69.8597C112.006 69.8597 113.404 68.4619 113.404 66.7375C113.404 65.0131 112.006 63.6153 110.281 63.6153C108.557 63.6153 107.159 65.0131 107.159 66.7375C107.159 68.4619 108.557 69.8597 110.281 69.8597Z" fill="white"/>
<path d="M122.133 69.8597C123.857 69.8597 125.255 68.4619 125.255 66.7375C125.255 65.0131 123.857 63.6153 122.133 63.6153C120.409 63.6153 119.011 65.0131 119.011 66.7375C119.011 68.4619 120.409 69.8597 122.133 69.8597Z" fill="white"/>
<path d="M98.4006 69.8597C100.125 69.8597 101.523 68.4619 101.523 66.7375C101.523 65.0131 100.125 63.6153 98.4006 63.6153C96.6762 63.6153 95.2783 65.0131 95.2783 66.7375C95.2783 68.4619 96.6762 69.8597 98.4006 69.8597Z" fill="white"/>
<path d="M325.697 121.373H154.76V128.992H325.697V121.373Z" fill="#F2F2F2"/>
<path d="M215.707 140.419H154.76V148.037H215.707V140.419Z" fill="#F2F2F2"/>
<path d="M276.178 159.465H154.76V167.083H276.178V159.465Z" fill="#F2F2F2"/>
<path d="M443.102 270.834H151.298V424.052H443.102V270.834Z" fill="#F2F2F2"/>
<path d="M442.921 270.597H151.117V288.36H442.921V270.597Z" fill="#E6E6E6"/>
<path d="M437.639 294.535H157.449V416.25H437.639V294.535Z" fill="white"/>
<path d="M178.772 282.372C180.395 282.372 181.71 281.056 181.71 279.434C181.71 277.811 180.395 276.495 178.772 276.495C177.149 276.495 175.834 277.811 175.834 279.434C175.834 281.056 177.149 282.372 178.772 282.372Z" fill="white"/>
<path d="M189.925 282.372C191.547 282.372 192.863 281.056 192.863 279.434C192.863 277.811 191.547 276.495 189.925 276.495C188.302 276.495 186.986 277.811 186.986 279.434C186.986 281.056 188.302 282.372 189.925 282.372Z" fill="white"/>
<path d="M167.589 282.372C169.212 282.372 170.527 281.056 170.527 279.434C170.527 277.811 169.212 276.495 167.589 276.495C165.966 276.495 164.651 277.811 164.651 279.434C164.651 281.056 165.966 282.372 167.589 282.372Z" fill="white"/>
<path d="M637.9 124.496H291.77V306.239H637.9V124.496Z" fill="#E6E6E6"/>
<path d="M637.69 124.215H291.56V145.284H637.69V124.215Z" fill="#D35E4C"/>
<path d="M629.574 151.755H299.541V296.096H629.574V151.755Z" fill="white"/>
<path d="M324.359 138.181C326.284 138.181 327.844 136.62 327.844 134.695C327.844 132.771 326.284 131.21 324.359 131.21C322.434 131.21 320.874 132.771 320.874 134.695C320.874 136.62 322.434 138.181 324.359 138.181Z" fill="white"/>
<path d="M337.588 138.181C339.513 138.181 341.074 136.62 341.074 134.695C341.074 132.771 339.513 131.21 337.588 131.21C335.663 131.21 334.103 132.771 334.103 134.695C334.103 136.62 335.663 138.181 337.588 138.181Z" fill="white"/>
<path d="M311.095 138.181C313.02 138.181 314.58 136.62 314.58 134.695C314.58 132.771 313.02 131.21 311.095 131.21C309.17 131.21 307.61 132.771 307.61 134.695C307.61 136.62 309.17 138.181 311.095 138.181Z" fill="white"/>
<path d="M591.253 188.921H338.203V200.199H591.253V188.921Z" fill="#E6E6E6"/>
<path d="M428.427 217.116H338.203V228.394H428.427V217.116Z" fill="#E6E6E6"/>
<path d="M517.946 245.311H338.203V256.589H517.946V245.311Z" fill="#E6E6E6"/>
<path d="M399.409 330.661H208.6V339.165H399.409V330.661Z" fill="#F2F2F2"/>
<path d="M276.632 351.921H208.6V360.425H276.632V351.921Z" fill="#F2F2F2"/>
<path d="M344.133 373.181H208.6V381.685H344.133V373.181Z" fill="#F2F2F2"/>
<path d="M449.305 24.5018C448.839 24.5018 448.374 24.3215 448.023 23.9626L437.792 13.5041C437.11 12.8072 437.11 11.6936 437.792 10.9967L448.023 0.539144C448.717 -0.168239 449.854 -0.179624 450.558 0.511138C451.267 1.20364 451.279 2.33913 450.586 3.04652L441.582 12.2504L450.586 21.4552C451.279 22.1626 451.267 23.2981 450.558 23.9906C450.21 24.332 449.757 24.5018 449.305 24.5018Z" fill="#40494F"/>
<path d="M466.497 24.5024C466.045 24.5024 465.592 24.3326 465.244 23.9911C464.535 23.2986 464.523 22.164 465.216 21.4558L474.219 12.251L465.216 3.0471C464.523 2.33971 464.535 1.20422 465.244 0.511719C465.95 -0.181661 467.086 -0.168518 467.779 0.539725L478.009 10.9973C478.691 11.6942 478.691 12.8078 478.009 13.5047L467.779 23.9631C467.428 24.3221 466.963 24.5024 466.497 24.5024Z" fill="#40494F"/>
<rect x="164.849" y="42.7708" width="72" height="29" rx="1" fill="#40494F"/>
<path d="M195.185 62.9075C197.372 62.9075 198.739 61.5403 198.739 59.4075V52.3801H196.388V59.4622C196.388 60.3372 195.896 60.9114 195.103 60.9114C194.364 60.9114 193.872 60.4739 193.708 59.6536L191.794 60.4192C192.204 61.9504 193.462 62.9075 195.185 62.9075ZM204.81 62.9075C207.517 62.9075 209.103 61.7317 209.103 59.7083C209.103 57.5754 206.97 56.9739 205.247 56.509C203.853 56.1262 203.06 55.8254 203.06 55.2239C203.06 54.6497 203.743 54.2668 204.81 54.2668C205.821 54.2668 206.833 54.6223 207.599 55.2512L208.856 53.5012C207.681 52.6536 206.396 52.2434 204.892 52.2434C202.349 52.2434 200.735 53.4192 200.735 55.3333C200.735 57.5754 202.95 58.2043 204.7 58.6965C205.931 59.052 206.724 59.2161 206.724 59.8723C206.724 60.5286 206.04 60.9114 204.864 60.9114C203.606 60.9114 202.458 60.4465 201.61 59.6262L200.325 61.3762C201.419 62.3606 203.06 62.9075 204.81 62.9075Z" fill="white"/>
<defs>
<linearGradient id="paint0_linear_32_3016" x1="48.6085" y1="70.6221" x2="113.754" y2="168.348" gradientUnits="userSpaceOnUse">
<stop stop-color="#F8D679"/>
<stop offset="1" stop-color="#EEBF6A"/>
</linearGradient>
<linearGradient id="paint1_linear_32_3016" x1="574.575" y1="55.286" x2="554.13" y2="145.157" gradientUnits="userSpaceOnUse">
<stop stop-color="#7AABF9"/>
<stop offset="1" stop-color="#4C6DED"/>
</linearGradient>
</defs>
</svg>
