<svg width="24" height="22" viewBox="0 0 24 22" fill="none" xmlns="http://www.w3.org/2000/svg">
<path fill-rule="evenodd" clip-rule="evenodd" d="M4.44118 14.1758C5.36802 13.3162 6.62508 12.8333 7.93582 12.8333H15.8433C17.154 12.8333 18.4111 13.3162 19.3379 14.1758C20.2648 15.0353 20.7855 16.2011 20.7855 17.4167V19.25C20.7855 19.7563 20.3429 20.1667 19.797 20.1667C19.2511 20.1667 18.8086 19.7563 18.8086 19.25V17.4167C18.8086 16.6873 18.4962 15.9878 17.9401 15.4721C17.384 14.9564 16.6297 14.6667 15.8433 14.6667H7.93582C7.14938 14.6667 6.39514 14.9564 5.83904 15.4721C5.28294 15.9878 4.97052 16.6873 4.97052 17.4167V19.25C4.97052 19.7563 4.52798 20.1667 3.98209 20.1667C3.43619 20.1667 2.99365 19.7563 2.99365 19.25V17.4167C2.99365 16.2011 3.51434 15.0353 4.44118 14.1758Z" fill="white"/>
<path fill-rule="evenodd" clip-rule="evenodd" d="M11.8894 3.66666C10.2517 3.66666 8.92413 4.89788 8.92413 6.41666C8.92413 7.93544 10.2517 9.16666 11.8894 9.16666C13.5271 9.16666 14.8547 7.93544 14.8547 6.41666C14.8547 4.89788 13.5271 3.66666 11.8894 3.66666ZM6.94727 6.41666C6.94727 3.88536 9.15995 1.83333 11.8894 1.83333C14.6189 1.83333 16.8316 3.88536 16.8316 6.41666C16.8316 8.94797 14.6189 11 11.8894 11C9.15995 11 6.94727 8.94797 6.94727 6.41666Z" fill="white"/>
</svg>
